<svg xmlns="http://www.w3.org/2000/svg" version="1.1" xmlns:xlink="http://www.w3.org/1999/xlink" xmlns:svgjs="http://svgjs.dev/svgjs" width="1000" height="1000" viewBox="0 0 1000 1000"><rect width="1000" height="1000" fill="#000000"></rect><g transform="matrix(0.7,0,0,0.7,149.57575757575756,282.1265587044535)"><svg viewBox="0 0 396 247" data-background-color="#15171c" preserveAspectRatio="xMidYMid meet" height="623" width="1000" xmlns="http://www.w3.org/2000/svg" xmlns:xlink="http://www.w3.org/1999/xlink"><defs></defs><g id="tight-bounds" transform="matrix(1,0,0,1,0.2400000000000091,-0.09999999999999432)"><svg viewBox="0 0 395.52 247.2" height="247.2" width="395.52"><g><svg></svg></g><g><svg viewBox="0 0 395.52 247.2" height="247.2" width="395.52"><g transform="matrix(1,0,0,1,75.54432000000001,80.79459716955941)"><svg viewBox="0 0 244.43135999999996 85.61080566088116" height="85.61080566088116" width="244.43135999999996"><g><svg viewBox="0 0 244.43135999999996 85.61080566088116" height="85.61080566088116" width="244.43135999999996"><g><svg viewBox="0 0 244.43135999999996 85.61080566088116" height="85.61080566088116" width="244.43135999999996"><g><svg viewBox="0 0 244.43135999999996 85.61080566088116" height="85.61080566088116" width="244.43135999999996"><g><svg viewBox="0 0 244.43135999999996 85.61080566088116" height="85.61080566088116" width="244.43135999999996"><g><svg viewBox="0 0 244.43135999999996 85.61080566088116" height="85.61080566088116" width="244.43135999999996"><g transform="matrix(1,0,0,1,0,0)"><svg width="244.43135999999996" viewBox="1.600000023841858 -38.849998474121094 112.34000396728516 39.349998474121094" height="85.61080566088116" data-palette-color="#ffb200"><path d="M1.6-10.45L1.6-10.45Q1.6-12.9 2.43-14.93 3.25-16.95 4.7-18.4 6.15-19.85 8.13-20.65 10.1-21.45 12.4-21.45L12.4-21.45Q13.95-21.45 15.18-21.08 16.4-20.7 17.28-20.18 18.15-19.65 18.75-19 19.35-18.35 19.65-17.85L19.65-17.85 19.65-38.85 23.95-38.85 23.95 0 19.65 0 19.65-1.55Q19.65-1.85 19.7-2.23 19.75-2.6 19.75-2.85L19.75-2.85Q19.25-2.25 18.57-1.68 17.9-1.1 17-0.6 16.1-0.1 14.93 0.2 13.75 0.5 12.25 0.5L12.25 0.5Q9.75 0.5 7.78-0.38 5.8-1.25 4.42-2.73 3.05-4.2 2.33-6.2 1.6-8.2 1.6-10.45ZM5.9-10.5L5.9-10.5Q5.9-9.05 6.43-7.8 6.95-6.55 7.85-5.65 8.75-4.75 10-4.23 11.25-3.7 12.75-3.7L12.75-3.7Q14.25-3.7 15.53-4.23 16.8-4.75 17.73-5.68 18.65-6.6 19.15-7.83 19.65-9.05 19.65-10.5L19.65-10.5Q19.65-11.95 19.15-13.18 18.65-14.4 17.73-15.3 16.8-16.2 15.53-16.73 14.25-17.25 12.75-17.25L12.75-17.25Q11.25-17.25 10-16.73 8.75-16.2 7.85-15.3 6.95-14.4 6.43-13.18 5.9-11.95 5.9-10.5ZM44.45-5.55L47.65-2.45Q46.15-1.1 44-0.3 41.85 0.5 39.6 0.5L39.6 0.5Q37.3 0.5 35.27-0.38 33.25-1.25 31.75-2.73 30.25-4.2 29.37-6.2 28.5-8.2 28.5-10.45L28.5-10.45Q28.5-12.7 29.37-14.7 30.25-16.7 31.75-18.2 33.25-19.7 35.22-20.58 37.2-21.45 39.45-21.45L39.45-21.45Q43-21.45 45.62-19.33 48.25-17.2 49.4-13.75L49.4-13.75Q47.85-13.2 45.85-12.4 43.85-11.6 41.7-10.73 39.55-9.85 37.4-9 35.25-8.15 33.4-7.45L33.4-7.45Q34.25-5.75 35.87-4.73 37.5-3.7 39.5-3.7L39.5-3.7Q40.85-3.7 42.22-4.2 43.6-4.7 44.45-5.55L44.45-5.55ZM44.05-14.75L44.05-14.75Q43.45-16 42.15-16.63 40.85-17.25 39.5-17.25L39.5-17.25Q38.05-17.25 36.82-16.7 35.6-16.15 34.7-15.23 33.8-14.3 33.27-13.1 32.75-11.9 32.75-10.65L32.75-10.65Q32.75-10.4 32.77-10.3 32.8-10.2 32.8-10.15L32.8-10.15Q34.1-10.65 35.62-11.28 37.15-11.9 38.65-12.53 40.15-13.15 41.55-13.73 42.95-14.3 44.05-14.75ZM64.75-19.05L64.75-19.05 62.5-16.05Q62.45-16.1 62.15-16.3 61.85-16.5 61.37-16.7 60.9-16.9 60.27-17.07 59.65-17.25 59-17.25L59-17.25Q58.15-17.25 57.32-16.85 56.5-16.45 56.5-15.35L56.5-15.35Q56.5-14.4 57.17-13.8 57.85-13.2 58.85-12.73 59.85-12.25 61.02-11.75 62.2-11.25 63.2-10.53 64.2-9.8 64.87-8.72 65.55-7.65 65.55-6L65.55-6Q65.55-3.2 63.62-1.38 61.7 0.45 58.35 0.45L58.35 0.45Q56.4 0.45 54.52-0.23 52.65-0.9 51.5-2.2L51.5-2.2Q51.85-2.55 52.27-3.1 52.7-3.65 53.12-4.15 53.55-4.65 53.82-4.98 54.1-5.3 54.15-5.3L54.15-5.3Q54.15-5.25 54.52-5 54.9-4.75 55.5-4.48 56.1-4.2 56.85-3.98 57.6-3.75 58.35-3.75L58.35-3.75Q59.55-3.75 60.4-4.35 61.25-4.95 61.25-5.95L61.25-5.95Q61.25-6.85 60.57-7.38 59.9-7.9 58.9-8.35 57.9-8.8 56.7-9.28 55.5-9.75 54.5-10.5 53.5-11.25 52.82-12.38 52.15-13.5 52.15-15.3L52.15-15.3Q52.15-17 52.77-18.15 53.4-19.3 54.37-20.03 55.35-20.75 56.55-21.08 57.75-21.4 58.85-21.4L58.85-21.4Q60.3-21.4 61.95-20.8 63.6-20.2 64.75-19.05ZM84.59-5.55L87.79-2.45Q86.29-1.1 84.14-0.3 81.99 0.5 79.74 0.5L79.74 0.5Q77.44 0.5 75.42-0.38 73.39-1.25 71.89-2.73 70.39-4.2 69.52-6.2 68.64-8.2 68.64-10.45L68.64-10.45Q68.64-12.7 69.52-14.7 70.39-16.7 71.89-18.2 73.39-19.7 75.37-20.58 77.34-21.45 79.59-21.45L79.59-21.45Q83.14-21.45 85.77-19.33 88.39-17.2 89.54-13.75L89.54-13.75Q87.99-13.2 85.99-12.4 83.99-11.6 81.84-10.73 79.69-9.85 77.54-9 75.39-8.15 73.54-7.45L73.54-7.45Q74.39-5.75 76.02-4.73 77.64-3.7 79.64-3.7L79.64-3.7Q80.99-3.7 82.37-4.2 83.74-4.7 84.59-5.55L84.59-5.55ZM84.19-14.75L84.19-14.75Q83.59-16 82.29-16.63 80.99-17.25 79.64-17.25L79.64-17.25Q78.19-17.25 76.97-16.7 75.74-16.15 74.84-15.23 73.94-14.3 73.42-13.1 72.89-11.9 72.89-10.65L72.89-10.65Q72.89-10.4 72.92-10.3 72.94-10.2 72.94-10.15L72.94-10.15Q74.24-10.65 75.77-11.28 77.29-11.9 78.79-12.53 80.29-13.15 81.69-13.73 83.09-14.3 84.19-14.75ZM91.79-10.5L91.79-10.5Q91.79-12.75 92.67-14.75 93.54-16.75 95.04-18.23 96.54-19.7 98.57-20.58 100.59-21.45 102.94-21.45L102.94-21.45Q105.29-21.45 107.32-20.58 109.34-19.7 110.82-18.23 112.29-16.75 113.12-14.75 113.94-12.75 113.94-10.5L113.94-10.5Q113.94-8.25 113.12-6.25 112.29-4.25 110.82-2.75 109.34-1.25 107.32-0.38 105.29 0.5 102.89 0.5L102.89 0.5Q100.59 0.5 98.57-0.3 96.54-1.1 95.04-2.55 93.54-4 92.67-6.03 91.79-8.05 91.79-10.5ZM96.04-10.45L96.04-10.45Q96.04-9.05 96.57-7.83 97.09-6.6 98.02-5.68 98.94-4.75 100.17-4.23 101.39-3.7 102.79-3.7L102.79-3.7Q104.19-3.7 105.44-4.23 106.69-4.75 107.62-5.68 108.54-6.6 109.09-7.83 109.64-9.05 109.64-10.45L109.64-10.45Q109.64-11.85 109.09-13.1 108.54-14.35 107.62-15.28 106.69-16.2 105.44-16.73 104.19-17.25 102.79-17.25L102.79-17.25Q101.39-17.25 100.17-16.73 98.94-16.2 98.02-15.28 97.09-14.35 96.57-13.1 96.04-11.85 96.04-10.45Z" opacity="1" transform="matrix(1,0,0,1,0,0)" fill="#ffffff" class="undefined-text-0" data-fill-palette-color="primary" id="text-0"></path></svg></g></svg></g></svg></g></svg></g></svg></g></svg></g></svg></g><path d="M178.85 74.795L178.85 20.691 384.668 20.691 384.668 226.509 178.85 226.509 178.85 172.405 186.571 172.405 186.571 218.788 376.948 218.788 376.948 28.412 186.571 28.412 186.571 74.795Z" fill="#ffffff" stroke="transparent" data-fill-palette-color="primary"></path></svg></g></svg><rect width="395.52" height="247.2" fill="none" stroke="none" visibility="hidden"></rect></g></svg></g></svg>